<?xml version="1.0" encoding="UTF-8" standalone="no"?>
<!DOCTYPE svg PUBLIC "-//W3C//DTD SVG 1.1//EN" "http://www.w3.org/Graphics/SVG/1.1/DTD/svg11.dtd">
<svg width="100%" height="100%" viewBox="0 0 500 500" version="1.1" xmlns="http://www.w3.org/2000/svg" xmlns:xlink="http://www.w3.org/1999/xlink" xml:space="preserve" style="fill-rule:evenodd;clip-rule:evenodd;stroke-linecap:round;stroke-linejoin:round;stroke-miterlimit:1.41421;">
    <g transform="matrix(3.76962,0,0,3.76962,-38.4491,-58.3738)">
        <g id="Layer1">
            <g>
                <path d="M76.449,40.234C101.586,40.124 117.011,60.846 117.636,72.734C118.391,87.089 116.21,110.439 95.12,114.077C88.335,115.247 93.683,123.389 76.273,123.533C58.674,123.678 64.846,115.804 54.756,113.236C14.839,103.078 32.176,40.428 76.449,40.234Z" style="fill:rgb(249,246,238);stroke-width:2px;stroke:rgb(144,110,91);"/>
                <g>
                    <path d="M70.792,40.226C75.497,45.804 70.689,81.92 65.472,92.191C61.481,100.048 39.49,101.854 39.49,101.854L39.082,56.128C49.646,48.646 69.531,38.732 70.792,40.226Z" style="fill:rgb(188,160,125);"/>
                    <g transform="matrix(-1,0,0,1,152.078,0)">
                        <path d="M70.792,40.226C75.497,45.804 70.689,81.92 65.472,92.191C61.481,100.048 39.49,101.854 39.49,101.854L39.082,56.128C49.646,48.646 69.531,38.732 70.792,40.226Z" style="fill:rgb(188,160,125);"/>
                    </g>
                </g>
                <path d="M76.449,40.234C101.586,40.124 117.011,60.846 117.636,72.734C118.391,87.089 116.21,110.439 95.12,114.077C88.335,115.247 93.683,123.389 76.273,123.533C58.674,123.678 64.846,115.804 54.756,113.236C14.839,103.078 32.176,40.428 76.449,40.234Z" style="fill:none;stroke-width:3px;stroke:rgb(59,38,26);"/>
                <g id="Ears">
                    <path d="M103.041,47.067C99.387,48.408 106.751,62.479 108.131,78.741C109.726,97.533 107.489,117.458 122.695,116.037C136.7,114.728 142.732,93.356 131.466,77.727C120.547,62.581 113.043,43.397 103.041,47.067Z" style="fill:rgb(188,160,125);stroke-width:3px;stroke:rgb(59,38,26);"/>
                    <g transform="matrix(-1,0,0,1,153.039,-0.879373)">
                        <path d="M103.041,47.067C99.387,48.408 106.751,62.479 108.131,78.741C109.726,97.533 107.489,117.458 122.695,116.037C136.7,114.728 142.732,93.356 131.466,77.727C120.547,62.581 113.043,43.397 103.041,47.067Z" style="fill:rgb(188,160,125);stroke-width:3px;stroke:rgb(59,38,26);"/>
                    </g>
                </g>
                <g id="Eyes">
                    <g transform="matrix(1,0,0,1,3.18619,3.42593)">
                        <circle cx="55.762" cy="84.296" r="3.092" style="fill:rgb(99,63,44);stroke-width:2px;stroke:black;"/>
                    </g>
                    <g transform="matrix(1,0,0,1,36.4491,3.42593)">
                        <circle cx="55.762" cy="84.296" r="3.092" style="fill:rgb(99,63,44);stroke-width:2px;stroke:black;"/>
                    </g>
                    <g transform="matrix(0.343563,0,0,0.343563,38.7607,57.7311)">
                        <circle cx="55.762" cy="84.296" r="3.092" style="fill:rgb(249,246,238);"/>
                    </g>
                    <g transform="matrix(0.343563,0,0,0.343563,72.1886,57.7311)">
                        <circle cx="55.762" cy="84.296" r="3.092" style="fill:rgb(249,246,238);"/>
                    </g>
                </g>
                <path id="Nose" d="M70.371,98.893C76.036,97.937 76.007,97.89 80.781,98.737C86.409,99.735 78.224,106.305 76.046,106.233C73.787,106.159 64.935,99.81 70.371,98.893Z" style="fill:rgb(59,38,26);stroke-width:2px;stroke:rgb(59,38,26);"/>
            </g>
        </g>
    </g>
</svg>
